<?xml version="1.0" encoding="utf-8"?>
<!-- Generator: Adobe Illustrator 27.5.0, SVG Export Plug-In . SVG Version: 6.00 Build 0)  -->
<svg version="1.1" xmlns="http://www.w3.org/2000/svg" xmlns:xlink="http://www.w3.org/1999/xlink" x="0px" y="0px"
	 viewBox="0 0 500 500" style="enable-background:new 0 0 500 500;" xml:space="preserve">
<g id="BACKGROUND">
	<rect style="fill:#F9FBFC;" width="500" height="500"/>
</g>
<g id="OBJECTS">
	<g>
		<g>
			
				<text transform="matrix(1 0 0 1 172.3195 370.6523)" style="fill:#112B46; font-family:'Montserrat-Medium'; font-size:36.1891px; letter-spacing:2;">REPAIR</text>
		</g>
		<g>
			
				<text transform="matrix(1 0 0 1 123.1806 331.0176)" style="fill:#112B46; font-family:'Montserrat-ExtraBold'; font-size:41.8198px;">COMPUTER</text>
		</g>
		<g>
			<path style="fill:#F9FBFC;" d="M355.721,184.519v-42.074c0-3.349-0.819-6.687-2.349-9.62c-0.06-0.124-0.126-0.254-0.179-0.353
				c-0.1-0.184-0.205-0.363-0.319-0.546c-2.306-3.954-5.886-7.09-10.099-8.839c-2.553-1.058-5.247-1.595-8.006-1.595h-169.54
				c-11.553,0-20.952,9.399-20.952,20.952v37.753c0,4.418,3.581,8,8,8h1.454v7.458h-1.454c-4.419,0-8,3.582-8,8v37.753
				c0,4.487,1.417,8.779,4.102,12.421c3.948,5.337,10.249,8.523,16.855,8.523h51.308v9.608c-4.187,1.47-7.203,5.452-7.203,10.135
				c0,5.928,4.822,10.75,10.749,10.75h59.822c5.927,0,10.749-4.822,10.749-10.75c0-4.684-3.016-8.667-7.205-10.136v-9.607h51.312
				c9.817,0,18.434-6.967,20.49-16.572c0.308-1.445,0.464-2.916,0.464-4.372v-42.085c0-3.345-2.055-6.208-4.971-7.402
				C353.665,190.727,355.721,187.864,355.721,184.519z"/>
			<g>
				<g>
					<path style="fill:#112B46;" d="M347.721,199.323h-6.896v42.084c0,3.341-2.718,6.059-6.059,6.059H165.224
						c-3.331,0-6.049-2.718-6.049-6.059v-37.752h-6.899v37.753c0,2.869,0.949,5.514,2.534,7.663
						c2.365,3.196,6.153,5.281,10.424,5.281h169.532c6.204,0,11.415-4.394,12.666-10.239c0.186-0.873,0.289-1.777,0.289-2.705
						V199.323z"/>
					<path style="fill:#112B46;" d="M165.228,129.492c-7.141,0-12.952,5.811-12.952,12.952v37.753h6.899v-37.752
						c0-3.341,2.718-6.059,6.049-6.059h169.542c3.341,0,6.059,2.718,6.059,6.059v42.074h6.896v-42.075
						c0-2.176-0.545-4.225-1.498-6.028c-0.025-0.046-0.044-0.096-0.069-0.142c-0.046-0.085-0.102-0.163-0.15-0.246
						c-1.422-2.477-3.633-4.446-6.293-5.551c-1.525-0.632-3.193-0.985-4.943-0.985H165.228z"/>
					<linearGradient id="SVGID_1_" gradientUnits="userSpaceOnUse" x1="207.3616" y1="120.2391" x2="295.3079" y2="268.1046">
						<stop  offset="0" style="stop-color:#3887FE"/>
						<stop  offset="1" style="stop-color:#8338EA"/>
					</linearGradient>
					<path style="fill:url(#SVGID_1_);" d="M334.766,138.94H165.224c-1.931,0-3.494,1.574-3.494,3.504v7.66v30.092v23.458v29.228
						v8.524c0,1.931,1.563,3.505,3.494,3.505h169.542c1.931,0,3.504-1.574,3.504-3.505v-8.524v-33.56v-14.804v-34.414v-7.66
						C338.271,140.514,336.697,138.94,334.766,138.94z"/>
				</g>
				<g>
					<rect x="224.542" y="256.857" style="fill:#112B46;" width="50.913" height="19.994"/>
				</g>
				<g>
					<path style="fill:#112B46;" d="M279.91,284.845c1.516,0,2.749-1.233,2.749-2.749c0-1.516-1.233-2.749-2.749-2.749h-59.822
						c-1.516,0-2.749,1.233-2.749,2.749c0,1.516,1.233,2.749,2.749,2.749H279.91z"/>
				</g>
			</g>
			<circle style="fill:#F9FBFC;" cx="249.999" cy="191.922" r="39.24"/>
			<path style="fill:#F9FBFC;" d="M282.358,180.268l-8.288-2.408l-0.283,0.046c0.195-0.696,0.308-1.426,0.308-2.184v-3.811
				c0-3.591-2.411-6.789-5.86-7.777l-13.357-3.832c-2.81-0.806-5.719-1.215-8.645-1.215c-2.861,0-5.708,0.392-8.464,1.163
				c-7.485,2.1-13.894,6.875-18.043,13.447l-1.004,1.589l-87.264,0.001v33.278h87.053l1.262,1.933
				c4.154,6.363,10.471,10.996,17.795,13.048l0.21,0.059c2.753,0.77,5.598,1.161,8.454,1.161c2.922,0,5.83-0.408,8.645-1.215
				l13.361-3.833c3.448-0.992,5.856-4.191,5.856-7.777v-3.039c0-1.06-0.211-2.071-0.583-2.999l0.558,0.091l8.288-2.409h86.182
				v-23.316H282.358z M245.911,193.334c-0.364-0.631-0.364-1.415,0-2.046l0.53-0.917v3.881L245.911,193.334z"/>
			<g>
				<g>
					<g>
						
							<linearGradient id="SVGID_00000155834381963888207380000016996267807640773259_" gradientUnits="userSpaceOnUse" x1="300.9305" y1="145.4042" x2="313.9774" y2="236.7327">
							<stop  offset="0" style="stop-color:#3887FE"/>
							<stop  offset="1" style="stop-color:#112B46"/>
						</linearGradient>
						<polygon style="fill:url(#SVGID_00000155834381963888207380000016996267807640773259_);" points="273.698,183.999 
							252.441,187.464 252.441,196.388 273.698,199.853 281.504,197.584 362.541,197.584 362.541,186.268 281.504,186.268 						"/>
					</g>
				</g>
				
					<linearGradient id="SVGID_00000159437792806736293180000018289972496438873265_" gradientUnits="userSpaceOnUse" x1="198.8938" y1="159.9806" x2="211.9408" y2="251.3092">
					<stop  offset="0" style="stop-color:#3887FE"/>
					<stop  offset="1" style="stop-color:#112B46"/>
				</linearGradient>
				<path style="fill:url(#SVGID_00000159437792806736293180000018289972496438873265_);" d="M244.44,181.837
					c1.438-2.49,4.094-4.023,6.969-4.023h14.595c1.155,0,2.092-0.936,2.092-2.091v-3.81c0-0.933-0.618-1.753-1.515-2.01
					l-13.358-3.832c-2.284-0.655-4.637-0.983-6.99-0.983c-2.303,0-4.606,0.314-6.844,0.941c-6.042,1.694-11.24,5.568-14.591,10.873
					l-2.77,4.386l-84.57,0v9.202h85.166v2.874h-85.166v9.203h84.302l3.038,4.653c3.357,5.142,8.467,8.89,14.381,10.547l0.217,0.061
					c2.236,0.626,4.537,0.939,6.837,0.939c2.354,0,4.707-0.328,6.99-0.983l13.358-3.832c0.897-0.257,1.515-1.077,1.515-2.01v-3.039
					c0-1.155-0.936-2.091-2.091-2.091l-14.596,0c-2.874,0-5.531-1.534-6.968-4.023l-3.725-6.452c-1.438-2.49-1.438-5.557,0-8.047
					L244.44,181.837z"/>
			</g>
		</g>
	</g>
</g>
</svg>
